PathFileType	3	(X/Y/Z)	F:\ViconData\AntennenMessung\Messung1\Session1\ID14.trc
DataRate	CameraRate	NumFrames	NumMarkers	Units	OrigDataRate	OrigDataStartFrame	OrigNumFrames
120.0	120.0	4	70	mm	120.0	1213	1940	
Frame#	Time	Ashort			Along			Atop			A4			Bshort			Blong			Btop			B4			Cshort			Clong			Ctop			C4			Dshort			Dlong			Dtop			D4			Eshort			Elong			Etop			E4			Fshort			Flong			Ftop			F4			Gshort			Glong			Gtop			G4			Hshort			Hlong			Htop			H4			I1			I2			I3			I4			I5			WandAshort			WandAlong			WandAtop			WandA4			WandA15			WandBshort			WandB4			WandB5			WandBtop			WandBlong			WandCshort			WandClong			WandCtop			WandC4			WandC5			Acenter			Aantenna			Bcenter			Bantenna			Ccenter			Cantenna			Dcenter			Dantenna			Ecenter			Eantenna			Fcenter			Fantenna			Gcenter			Gantenna			Hcenter			Hantenna			Icenter			Iantenna			
		X1	Y1	Z1	X2	Y2	Z2	X3	Y3	Z3	X4	Y4	Z4	X5	Y5	Z5	X6	Y6	Z6	X7	Y7	Z7	X8	Y8	Z8	X9	Y9	Z9	X10	Y10	Z10	X11	Y11	Z11	X12	Y12	Z12	X13	Y13	Z13	X14	Y14	Z14	X15	Y15	Z15	X16	Y16	Z16	X17	Y17	Z17	X18	Y18	Z18	X19	Y19	Z19	X20	Y20	Z20	X21	Y21	Z21	X22	Y22	Z22	X23	Y23	Z23	X24	Y24	Z24	X25	Y25	Z25	X26	Y26	Z26	X27	Y27	Z27	X28	Y28	Z28	X29	Y29	Z29	X30	Y30	Z30	X31	Y31	Z31	X32	Y32	Z32	X33	Y33	Z33	X34	Y34	Z34	X35	Y35	Z35	X36	Y36	Z36	X37	Y37	Z37	X38	Y38	Z38	X39	Y39	Z39	X40	Y40	Z40	X41	Y41	Z41	X42	Y42	Z42	X43	Y43	Z43	X44	Y44	Z44	X45	Y45	Z45	X46	Y46	Z46	X47	Y47	Z47	X48	Y48	Z48	X49	Y49	Z49	X50	Y50	Z50	X51	Y51	Z51	X52	Y52	Z52	X53	Y53	Z53	X54	Y54	Z54	X55	Y55	Z55	X56	Y56	Z56	X57	Y57	Z57	X58	Y58	Z58	X59	Y59	Z59	X60	Y60	Z60	X61	Y61	Z61	X62	Y62	Z62	X63	Y63	Z63	X64	Y64	Z64	X65	Y65	Z65	X66	Y66	Z66	X67	Y67	Z67	X68	Y68	Z68	X69	Y69	Z69	X70	Y70	Z70	
1213	10.1	-1038.2147	214.63803	-1644.1066	-1109.3557	204.16356	-1599.3945	-1063.4893	172.94383	-1625.9346	-1054.135	262.24524	-1634.9325	-1352.7139	235.13699	1003.5128	-1281.3441	227.35901	1052.1915	-1322.7434	193.92661	1020.8741	-1284.394	287.96811	1052.6719	813.99457	187.73381	1209.415	892.34772	178.51472	1179.0746	844.57587	145.43326	1198.3583	861.01215	292.35095	1168.1709	1115.9138	210.05376	-1401.7974	1056.3646	194.11151	-1460.1909	1095.2825	162.53084	-1423.7682	1069.7593	238.95541	-1425.8783	-1204.5779	1686.0675	-1563.1261	-1129.129	1688.3604	-1606.2424	-1173.1458	1724.4739	-1581.9534	-1134.0164	1581.057	-1603.8441	-1239.3926	1698.8146	1119.3727	-1309.3486	1698.8628	1071.9473	-1270.2317	1736.1299	1096.8314	-1245.5863	1592.7831	1110.6736	988.84015	1664.1704	1162.1764	957.29199	1700.5614	1183.7576	922.14191	1662.2574	1214.876	939.84473	1659.4147	1159.804	999.14569	1668.4609	-1579.3624	1058.8063	1669.9755	-1518.702	1025.0858	1708.0715	-1551.125	1059.3489	1672.1501	-1585.3794	-238.09558	1170.436	-194.6335	-153.37085	1173.0414	-193.8578	-201.05711	1208.9044	-193.91278	-202.29321	1171.2834	-162.71005	-200.57524	1172.8618	-241.65511																																														-1068.4502	210.18628	-1625.1035	-1073.5986	248.83533	-1624.2411	-1321.3662	231.72067	1024.8938	-1319.9539	270.47653	1029.0156	848.22748	183.70595	1196.1592	851.9256	222.46626	1193.9318	1088.9133	202.82527	-1428.2739	1082.8612	241.11418	-1432.5554	-1171.916	1687.0601	-1581.791	-1170.6349	1648.0814	-1581.6219	-1271.0084	1698.8363	1097.9392	-1271.8201	1659.8619	1099.097	952.91345	1705.6119	1186.7527	972.86676	1733.7245	1168.5166	1026.5026	1669.1554	-1551.5468	1027.9215	1630.1836	-1551.9692	-199.90689	1171.6102	-194.28384	-198.70468	1132.6307	-194.67171
1214	10.108333	-1038.1969	214.55371	-1644.0551	-1109.3552	204.19899	-1599.4008	-1063.4979	172.95107	-1625.9014	-1054.1151	262.24319	-1634.8416	-1352.7124	235.12602	1003.5692	-1281.3192	227.48192	1052.1783	-1322.7173	193.93398	1020.8557	-1284.3414	287.94949	1052.6245	814.01617	187.69818	1209.4326	892.30383	178.45271	1179.0571	844.51074	145.46593	1198.3337	860.96887	292.37555	1167.7632	1115.8563	209.75267	-1401.6599	1056.355	194.1624	-1460.2305	1095.304	162.625	-1423.7509	1069.7664	238.93643	-1425.8994	-1204.5712	1686.0518	-1563.14	-1129.1351	1688.3699	-1606.241	-1173.1504	1724.4542	-1581.9407	-1134.0199	1581.0631	-1603.8429	-1239.5579	1699.0604	1119.4418	-1309.4207	1698.9584	1071.9833	-1270.2579	1736.1661	1096.8586	-1245.5759	1592.7697	1110.6716	988.87836	1664.2169	1162.1838	957.30969	1700.5273	1183.8682	921.9917	1662.2974	1214.8365	939.89325	1659.4225	1159.7814	999.1637	1668.4396	-1579.3591	1058.9012	1670.0505	-1518.7405	1025.0853	1708.0714	-1551.1189	1059.345	1672.1561	-1585.3788	-238.08195	1170.4263	-194.64134	-153.37128	1173.0269	-193.86679	-201.04312	1208.8925	-193.91306	-202.282	1171.2886	-162.70741	-200.57327	1172.8517	-241.65192																																														-1068.4072	210.15759	-1625.0969	-1073.5079	248.81357	-1624.2611	-1321.408	231.77423	1024.8832	-1320.0668	270.53226	1029.0084	848.18414	183.66307	1196.1753	851.91174	222.42268	1193.9852	1089.0376	202.72575	-1428.059	1083.05	241.04289	-1432.1754	-1171.9186	1687.0549	-1581.7961	-1170.635	1648.0764	-1581.6459	-1271.0242	1699.0144	1098.0663	-1271.8279	1660.0432	1099.3331	952.79498	1705.7201	1186.9692	972.78674	1733.902	1168.8831	1026.5701	1669.1786	-1551.5485	1028.0577	1630.2094	-1551.979	-199.89474	1171.5984	-194.29216	-198.69447	1132.619	-194.68842
1215	10.116667	-1038.2002	214.56541	-1644.0791	-1109.3726	204.23358	-1599.4109	-1063.4705	172.92577	-1625.8875	-1054.0973	262.2666	-1634.8683	-1352.7024	235.12656	1003.4669	-1281.3275	227.44005	1052.2273	-1322.6497	194.01089	1020.7961	-1284.4163	287.93674	1052.7163	814.01184	187.74886	1209.4614	892.39124	178.63278	1178.9691	844.55566	145.40921	1198.3749	861.12317	292.28601	1168.2161	1115.8993	210.03984	-1401.8088	1056.3663	194.14574	-1460.2074	1095.2759	162.56781	-1423.748	1069.7689	238.95253	-1425.8911	-1204.5811	1686.058	-1563.1348	-1129.1191	1688.37	-1606.2504	-1173.1093	1724.4227	-1581.9756	-1134.0289	1581.0503	-1603.8357	-1239.5393	1699.0114	1119.4363	-1309.422	1698.9572	1071.9867	-1270.373	1736.2383	1096.876	-1245.5591	1592.7106	1110.6479	988.81183	1664.1544	1162.1625	957.27246	1700.5885	1183.7643	921.88495	1662.299	1214.8556	939.8595	1659.4198	1159.7986	999.15381	1668.462	-1579.3782	1058.9373	1670.1486	-1518.6835	1025.0835	1708.0817	-1551.1218	1059.347	1672.1476	-1585.3741	-238.08479	1170.4395	-194.63904	-153.36864	1173.0327	-193.87398	-201.05467	1208.9033	-193.91876	-202.32028	1171.3044	-162.73187	-200.58177	1172.8557	-241.64709																																														-1068.4004	210.18135	-1625.1251	-1073.5154	248.83636	-1624.3344	-1321.3698	231.75227	1024.8719	-1320.0555	270.50479	1029.057	848.16254	183.77687	1196.1755	851.80682	222.5426	1193.9536	1088.9419	202.84277	-1428.2524	1082.9197	241.13623	-1432.5353	-1171.8762	1687.0599	-1581.8208	-1170.5898	1648.0814	-1581.6595	-1271.1083	1698.9868	1098.0011	-1271.8774	1660.0121	1099.1785	952.83136	1705.7185	1186.8059	972.86407	1733.8256	1168.6487	1026.5887	1669.236	-1551.5249	1028.0989	1630.2672	-1551.9293	-199.90962	1171.608	-194.29428	-198.71288	1132.6284	-194.68675
1216	10.125	-1038.2102	214.58105	-1644.0808	-1109.3748	204.16264	-1599.3744	-1063.5101	172.91833	-1625.9076	-1054.1063	262.25635	-1634.95	-1352.6395	235.19725	1003.4999	-1281.4219	227.23279	1052.1909	-1322.7041	193.94736	1020.8625	-1284.3857	287.94772	1052.6587	813.98389	187.76286	1209.3938	892.2652	178.3985	1179.1102	844.54602	145.45772	1198.2915	861.16925	292.39554	1168.3313	1115.8621	209.77757	-1401.6627	1056.3593	194.10657	-1460.1395	1095.337	162.62845	-1423.7449	1069.7556	238.91188	-1425.8824	-1204.5138	1686.0093	-1563.276	-1129.1274	1688.3713	-1606.2533	-1173.1425	1724.4698	-1581.9657	-1134.0118	1581.0573	-1603.8516	-1239.5293	1699.0103	1119.4368	-1309.3984	1698.9138	1071.9664	-1270.2295	1736.0957	1096.8259	-1245.5371	1592.6465	1110.6545	988.85474	1664.2097	1162.1748	957.33301	1700.5593	1183.8323	922.06171	1662.2797	1214.8903	939.83856	1659.4246	1159.795	999.16199	1668.4625	-1579.3683	1058.7009	1670.0498	-1518.7279	1025.0856	1708.0818	-1551.1251	1059.3378	1672.198	-1585.4883	-238.09106	1170.4346	-194.64653	-153.37785	1173.03	-193.87341	-201.04863	1208.8962	-193.92258	-202.30495	1171.2855	-162.72784	-200.57126	1172.8457	-241.67015																																														-1068.4457	210.15459	-1625.0864	-1073.569	248.80722	-1624.2341	-1321.2739	231.68953	1024.9443	-1319.8059	270.43597	1029.1348	848.27844	183.66037	1196.1267	852.06476	222.41397	1193.9308	1089.0122	202.70625	-1428.0494	1082.9667	241.0145	-1432.1639	-1171.9106	1687.0306	-1581.8628	-1170.6283	1648.052	-1581.7557	-1271.0089	1698.9668	1098.0487	-1271.8271	1659.9963	1099.3322	952.88336	1705.6906	1186.8895	972.86609	1733.8353	1168.7357	1026.5143	1669.1917	-1551.5099	1027.9459	1630.2198	-1551.8955	-199.90269	1171.6045	-194.298	-198.7049	1132.6249	-194.69041
